HIERARCHY
ROOT root
{
	OFFSET	0	13.1	24.9
	CHANNELS 6  Xposition Yposition Zposition Xrotation Yrotation Zrotation
	JOINT spine_1
	{
		OFFSET	0	9.99999	0
		CHANNELS 3  Xrotation Yrotation Zrotation
		JOINT spine_2
		{
			OFFSET	0	112	-10
			CHANNELS 3  Xrotation Yrotation Zrotation
			JOINT spine_3
			{
				OFFSET	0	206.5	19.3
				CHANNELS 3  Xrotation Yrotation Zrotation
				JOINT spine_4
				{
					OFFSET	0	110.4	14.6
					CHANNELS 3  Xrotation Yrotation Zrotation
					JOINT neck_1
					{
						OFFSET	0	71.8	-50.3
						CHANNELS 3  Xrotation Yrotation Zrotation
						JOINT neck_2
						{
							OFFSET	0	86.2	-25.8
							CHANNELS 3  Xrotation Yrotation Zrotation
							JOINT head_ee
							{
								OFFSET	0	179.8	-8.7
								CHANNELS 3  Xrotation Yrotation Zrotation
								End Site
								{
									OFFSET	1	0	0
								}
							}
						}
					}
					JOINT left_clavicle
					{
						OFFSET	-43.2	22.4	-70.8
						CHANNELS 3  Xrotation Yrotation Zrotation
						JOINT left_shoulder
						{
							OFFSET	-93.9	-5.79999	48.7
							CHANNELS 3  Xrotation Yrotation Zrotation
							JOINT left_elbow
							{
								OFFSET	-291.4	-30.8	15.2
								CHANNELS 3  Xrotation Yrotation Zrotation
								JOINT left_lowarm_twist
								{
									OFFSET	-110.7	-3.89999	13.6
									CHANNELS 3  Xrotation Yrotation Zrotation
									JOINT left_hand
									{
										OFFSET	-110.7	-3.89999	13.6
										CHANNELS 3  Xrotation Yrotation Zrotation
										JOINT left_ee
										{
											OFFSET	-80.8	-5.10001	12.1
											CHANNELS 3  Xrotation Yrotation Zrotation
											End Site
											{
												OFFSET	1	0	0
											}
										}
									}
								}
							}
						}
					}
					JOINT right_clavicle
					{
						OFFSET	43.2	22.4	-70.8
						CHANNELS 3  Xrotation Yrotation Zrotation
						JOINT right_shoulder
						{
							OFFSET	93.9	-5.79999	48.7
							CHANNELS 3  Xrotation Yrotation Zrotation
							JOINT right_elbow
							{
								OFFSET	291.4	-30.8	15.2
								CHANNELS 3  Xrotation Yrotation Zrotation
								JOINT right_lowarm_twist
								{
									OFFSET	110.7	-3.89999	13.6
									CHANNELS 3  Xrotation Yrotation Zrotation
									JOINT right_hand
									{
										OFFSET	110.7	-3.89999	13.6
										CHANNELS 3  Xrotation Yrotation Zrotation
										JOINT right_ee
										{
											OFFSET	80.8	-5.10001	12.1
											CHANNELS 3  Xrotation Yrotation Zrotation
											End Site
											{
												OFFSET	1	0	0
											}
										}
									}
								}
							}
						}
					}
				}
			}
		}
	}
	JOINT left_hip
	{
		OFFSET	-82.8	-127.5	0.300001
		CHANNELS 3  Xrotation Yrotation Zrotation
		JOINT left_knee
		{
			OFFSET	-28.2	-396.7	2.2
			CHANNELS 3  Xrotation Yrotation Zrotation
			JOINT left_ankle
			{
				OFFSET	-11.7	-411.3	35.4
				CHANNELS 3  Xrotation Yrotation Zrotation
				JOINT left_toes
				{
					OFFSET	0	-60	-88.6
					CHANNELS 3  Xrotation Yrotation Zrotation
					JOINT left_foot_ee
					{
						OFFSET	-22.5	-16.5	-42.2
						CHANNELS 3  Xrotation Yrotation Zrotation
						End Site
						{
							OFFSET	1	0	0
						}
					}
				}
			}
		}
	}
	JOINT right_hip
	{
		OFFSET	82.8	-127.5	0.300001
		CHANNELS 3  Xrotation Yrotation Zrotation
		JOINT right_knee
		{
			OFFSET	28.2	-396.7	2.2
			CHANNELS 3  Xrotation Yrotation Zrotation
			JOINT right_ankle
			{
				OFFSET	11.7	-411.3	35.4
				CHANNELS 3  Xrotation Yrotation Zrotation
				JOINT right_toes
				{
					OFFSET	0	-60	-88.6
					CHANNELS 3  Xrotation Yrotation Zrotation
					JOINT right_foot_ee
					{
						OFFSET	22.5	-16.5	-42.2
						CHANNELS 3  Xrotation Yrotation Zrotation
						End Site
						{
							OFFSET	1	0	0
						}
					}
				}
			}
		}
	}
}
MOTION
Frames: 8
Frame Time: 0.02
3549.6 753.156 -1470.83 8.62333 68.7867 -7.75651 -0.100767 0.46723 1.29265 -0.0999196 0.384036 1.31976 -0.0904012 0.095969 1.37113 -0.0928899 0.31129 1.33878 -11.5932 12.4308 0.121691 -11.8808 23.4723 3.63077 -0.0 0.0 -0.0 -1.41554 9.71068 -1.30164 3.15918 -31.622 69.0939 2.94898 -55.5958 1.55493 29.3315 0.0865319 -3.70524 -0.948171 15.4499 0.452405 -0.0 0.0 -0.0 8.95337 0.192284 -17.5176 -23.9182 2.98139 -65.6014 0.43673 12.2076 -0.0467025 37.4699 0.224247 4.69706 0.664362 4.65477 -2.50485 0.0 0.0 0.0 -9.13825 40.099 2.17006 -0.875429 0.0350556 0.129771 25.8238 -16.2214 -3.71421 -17.9211 0.0 0.0 -0.0 0.0 -0.0 -0.661281 12.8388 1.15191 5.44069 0.261969 0.79328 17.5329 -1.94734 2.43102 -29.2615 0.0 0.0 0.0 0.0 0.0 
3546.2 749.283 -1476.63 8.83944 69.1589 -8.02595 -0.045312 0.448313 1.35151 -0.0443684 0.361413 1.37729 -0.0349852 0.0630493 1.42251 -0.0376944 0.286896 1.39471 -11.3107 12.4431 -0.0976416 -11.5835 23.6147 3.36297 -0.0 0.0 -0.0 -1.52843 9.80377 -1.48339 4.4423 -31.1988 68.8463 3.02432 -56.2658 1.61734 29.5216 0.0808928 -3.72887 -0.999734 16.3401 0.523091 -0.0 0.0 -0.0 9.08187 1.2435 -17.811 -24.7734 2.99891 -66.0064 0.434796 12.1552 -0.0462944 37.1786 0.210704 4.66237 0.705719 4.98685 -2.64415 0.0 0.0 0.0 -8.89414 38.4583 1.59506 -1.68301 0.0656298 0.249936 25.2502 -15.557 -3.62689 -16.3266 0.0 0.0 -0.0 0.0 -0.0 -1.33661 12.5945 1.86073 6.17288 0.30295 0.898064 18.64 -1.61326 2.57307 -29.5594 0.0 0.0 0.0 0.0 0.0 
3539.46 742.85 -1485.29 10.0884 69.9584 -9.78492 -0.0703055 0.356351 1.51932 -0.0690586 0.258962 1.53891 -0.0613129 -0.0719186 1.55889 -0.0646613 0.175151 1.55069 -10.8213 12.428 -0.505081 -11.0653 23.8139 2.8599 -0.0 0.0 -0.0 -1.46052 9.9744 -1.33983 5.99288 -30.5637 69.0217 3.12296 -57.109 1.69978 29.7905 0.0727822 -3.76226 -1.07449 17.6117 0.623635 -0.0 0.0 -0.0 9.23855 2.78603 -18.1723 -25.9473 3.00425 -66.3814 0.431642 12.0696 -0.0456327 36.8016 0.193442 4.61736 0.76602 5.47577 -2.84525 0.0 0.0 0.0 -9.11713 36.0937 1.06743 -3.6085 0.131663 0.538051 24.2798 -14.5942 -3.48414 -14.0843 0.0 0.0 -0.0 0.0 -0.0 -1.28602 12.2066 1.84989 6.69384 0.332926 0.972302 20.4085 -1.21836 2.7958 -29.9688 0.0 0.0 0.0 0.0 0.0 
3532.19 737.139 -1494.49 9.39396 70.0863 -9.4255 -0.00721569 0.225753 1.64278 -0.0057223 0.120776 1.65382 -0.0014631 -0.229603 1.64225 -0.00522551 0.0326048 1.6579 -9.16506 12.6341 -1.38354 -9.30311 24.6642 1.69176 -0.0 0.0 -0.0 -1.36853 10.2452 -1.14036 7.67861 -29.5994 69.4288 3.25574 -58.1863 1.81195 30.2978 0.057057 -3.82514 -1.18235 19.4238 0.77247 -0.0 0.0 -0.0 9.6891 4.93017 -19.1582 -25.2725 3.7323 -66.1952 0.414687 11.6086 -0.0421542 36.2787 0.169986 4.55475 0.811486 5.69751 -3.05879 0.0 0.0 0.0 -8.63879 32.8378 0.487608 -6.19887 0.205141 0.928765 22.8072 -13.526 -3.27705 -11.5632 0.0 0.0 -0.0 0.0 -0.0 -1.95369 11.557 1.68811 4.43107 0.207667 0.647967 26.5723 -0.424311 3.5305 -29.915 0.0 0.0 0.0 0.0 0.0 
3525.97 736.372 -1502.76 9.5013 70.648 -9.87518 -0.00861676 0.0313474 1.80024 -0.0068176 -0.0832509 1.79858 -0.00870454 -0.45983 1.74082 -0.0128888 -0.179176 1.79157 -8.95993 13.1437 -1.69784 -9.09351 25.8205 1.46457 -0.0 0.0 -0.0 -2.42932 10.8965 -2.85811 7.86232 -29.0649 70.3509 3.6827 -61.2544 2.18079 30.9562 0.0358114 -3.90656 -1.2049 20.0876 0.93177 -0.0 0.0 -0.0 9.75873 6.51264 -19.3228 -24.7289 4.0067 -66.4646 0.38252 10.7299 -0.0359229 35.3878 0.131349 4.44761 0.890996 6.16291 -3.39958 0.0 0.0 0.0 -8.15509 30.1011 -0.270884 -6.7735 0.21904 1.01585 19.0754 -11.8494 -2.76645 -9.47235 0.0 0.0 -0.0 0.0 -0.0 -2.17977 10.6925 1.65148 3.53442 0.1616 0.518147 26.6017 -1.49309 3.52747 -29.1956 0.0 0.0 0.0 0.0 0.0 
3524.0 738.035 -1510.05 11.337 72.013 -12.0356 -0.0357187 -0.272371 1.83792 -0.0339232 -0.388752 1.81687 -0.0458094 -0.763567 1.69388 -0.0494839 -0.486513 1.79318 -8.99359 13.5095 -1.84465 -9.13815 26.6103 1.42126 -0.0 0.0 -0.0 -4.22788 12.044 -5.70828 7.32353 -28.4686 71.5361 4.32852 -64.9768 2.75711 31.8827 0.00433621 -4.02071 -1.10242 21.0719 1.96819 -0.0 0.0 -0.0 10.071 8.34275 -20.0009 -23.9299 4.221 -67.1499 0.336901 9.47502 -0.0279205 35.0587 0.117502 4.40789 0.954204 6.64699 -3.62222 0.0 0.0 0.0 -8.28168 27.1521 -0.476131 -7.49275 0.235206 1.12504 17.12 -9.79286 -2.47745 -7.70537 0.0 0.0 -0.0 0.0 -0.0 -2.3614 9.46169 1.68649 2.25381 0.0993515 0.331547 24.5996 -3.23266 3.29015 -27.7046 0.0 0.0 0.0 0.0 0.0 
3522.57 747.027 -1516.33 9.9134 71.4199 -10.9788 0.0218829 -0.193483 1.89423 0.0238245 -0.313604 1.87809 0.0140913 -0.701168 1.77032 0.00995535 -0.41283 1.8588 -9.05473 14.0534 -2.00163 -9.21839 27.7439 1.42196 -0.0 0.0 -0.0 -4.50096 13.4667 -5.84863 6.91716 -27.7919 72.0648 4.57177 -66.1539 2.97859 31.2519 0.0259677 -3.94304 -1.22654 22.2535 1.76062 -0.0 0.0 -0.0 10.5369 11.3693 -20.9949 -21.451 4.79862 -67.2887 0.320477 9.02091 -0.025281 35.3849 0.131227 4.44726 0.984609 6.49131 -3.89369 0.0 0.0 0.0 -7.82714 26.8975 -0.623862 -8.25467 0.250833 1.24092 16.3935 -7.04608 -2.3483 -6.57209 0.0 0.0 -0.0 0.0 -0.0 -2.69676 8.70894 1.39943 3.63987 0.166912 0.533452 22.7791 -3.61346 3.07414 -27.4702 0.0 0.0 0.0 0.0 0.0 
3521.25 748.623 -1523.51 8.85381 70.3457 -10.1086 0.0307115 -0.146268 1.98012 0.0328519 -0.271948 1.96681 0.0241755 -0.678752 1.86594 0.0195129 -0.375603 1.94968 -9.14075 14.7529 -2.08577 -9.33337 29.1225 1.54437 -0.0 0.0 -0.0 -4.48233 14.4755 -5.5842 7.23755 -26.7756 72.2523 4.70114 -66.7383 3.09719 30.5751 0.0482211 -3.85947 -1.35057 22.4612 1.13397 -0.0 0.0 -0.0 10.5977 12.4617 -21.1076 -20.706 4.94543 -67.3592 0.31268 8.80491 -0.024073 35.0759 0.118219 4.40997 1.05823 6.51552 -4.38153 0.0 0.0 0.0 -7.12413 26.5482 -0.871803 -9.30577 0.269858 1.40108 16.9521 -4.41264 -2.39639 -5.29235 0.0 0.0 -0.0 0.0 -0.0 -3.10488 8.75141 0.963278 5.65946 0.274073 0.824642 22.6902 -3.11553 3.06513 -27.1359 0.0 0.0 0.0 0.0 0.0 
